<?xml version="1.0" encoding="utf-8"?>
<!-- Generator: Adobe Illustrator 24.2.2, SVG Export Plug-In . SVG Version: 6.00 Build 0)  -->
<svg version="1.0" id="Layer_1" xmlns="http://www.w3.org/2000/svg" xmlns:xlink="http://www.w3.org/1999/xlink" x="0px" y="0px"
	 width="214px" height="304px" viewBox="0 0 214 304" style="enable-background:new 0 0 214 304;" xml:space="preserve">
<path d="M2,2.0086c0.291,0,0.5163,0,0.7416,0c11.114,0.0017,22.2281-0.0316,33.3419,0.0225c4.3426,0.0212,8.629,0.5827,12.7043,2.21
	c5.715,2.282,9.6636,6.1847,10.8345,12.4091c1.3758,7.3135-0.3559,13.6949-6.0718,18.7173
	c-1.7576,1.5444-3.8653,2.4836-6.0998,3.1364c-0.2455,0.0717-0.4943,0.1327-0.7384,0.2087
	c-0.0441,0.0137-0.073,0.0764-0.1952,0.2129c0.7275,0.1524,1.3951,0.288,2.0608,0.4324
	c7.8642,1.7055,13.4039,7.8648,14.2575,15.9068c0.5094,4.7993,0.0137,9.4632-2.2597,13.7972
	c-2.4516,4.6738-6.4667,7.4741-11.3241,9.1941c-4.039,1.4302-8.2397,2.0164-12.4906,2.0412
	c-11.3986,0.0663-22.7978,0.0255-34.1968,0.0261c-0.1682,0-0.3363-0.0143-0.5641-0.0246C2,54.2226,2,28.1688,2,2.0086z
	 M9.4373,73.9511c0.2701,0.0122,0.4645,0.0287,0.6589,0.0287c8.6889-0.0011,17.3779,0.0238,26.0665-0.0214
	c2.8763-0.015,5.7319-0.3529,8.5098-1.1712c4.2528-1.2527,7.7063-3.5203,9.5517-7.7332c1.3496-3.0812,1.6102-6.3396,1.2119-9.6412
	c-0.4583-3.7986-2.1006-6.9607-5.3307-9.1479c-3.6649-2.4816-7.8481-3.3627-12.146-3.4347
	c-9.2561-0.1552-18.5156-0.1008-27.7737-0.1281c-0.2416-0.0007-0.4834,0.0453-0.7484,0.0719
	C9.4373,53.1835,9.4373,63.5125,9.4373,73.9511z M9.4583,36.2842c0.24,0.0149,0.4339,0.0376,0.6276,0.0373
	c8.9214-0.0097,17.8429-0.0026,26.7642-0.0452c2.4612-0.0118,4.8715-0.4698,7.1706-1.369c3.8988-1.5248,6.8659-4.0178,8.1086-8.1831
	c0.6568-2.2016,0.5836-4.4553,0.2636-6.7026c-0.673-4.7257-3.1249-8.1086-7.5634-9.9702c-3.1837-1.3354-6.5428-1.6798-9.945-1.6891
	c-8.1804-0.0226-16.3609-0.008-24.5413-0.0064c-0.2781,0-0.5562,0.0228-0.8849,0.0373C9.4583,17.6875,9.4583,26.9309,9.4583,36.2842
	z"/>
<path d="M168.9596,41.0308c-2.2877,0-4.501,0-6.7991,0c0.0382-2.2497,0.4529-4.3847,1.1477-6.4669
	c1.665-4.99,4.9807-8.5182,9.8389-10.3696c7.436-2.8336,15.0426-2.9912,22.5641-0.3922c5.7599,1.9904,8.8513,6.3632,9.7241,12.3232
	c0.2469,1.6863,0.3316,3.4094,0.3371,5.1161c0.0309,9.6255,0.0131,19.2511,0.0205,28.8767
	c0.0004,0.5098,0.0255,1.0307,0.1301,1.5272c0.3776,1.7918,1.5076,2.7781,3.3333,2.8371c0.8684,0.0281,1.7424-0.1154,2.7436-0.1909
	c0,1.3244,0,2.736,0,4.1475c0,1.5861,0.002,1.6329-1.616,1.7034c-1.587,0.0692-3.1934,0.1717-4.7653,0.0088
	c-3.4022-0.3527-5.1298-2.0112-5.7868-5.4011c-0.2157-1.113-0.2552-2.2605-0.371-3.3927c-0.0274-0.2675-0.0377-0.5368-0.2384-0.8546
	c-0.1711,0.2435-0.3478,0.4832-0.5124,0.731c-1.5389,2.3171-3.2987,4.4405-5.4347,6.2347
	c-2.8327,2.3793-6.1517,3.6497-9.7633,4.1509c-4.1206,0.5718-8.2333,0.5468-12.2765-0.605
	c-7.4234-2.1147-11.7941-8.2353-11.5238-15.9962c0.1233-3.5406,0.8385-6.8459,3.2197-9.5997
	c2.0959-2.4238,4.816-3.8875,7.794-4.8895c3.7887-1.2747,7.7279-1.8662,11.6702-2.4133c3.83-0.5315,7.6785-0.9462,11.492-1.576
	c2.9145-0.4813,4.3622-2.0225,4.8272-4.8938c0.3737-2.3077,0.2047-4.6079-0.5516-6.8409c-0.9359-2.7631-2.8674-4.5845-5.5491-5.5367
	c-5.1198-1.8178-10.3348-1.964-15.4936-0.2578c-4.8388,1.6004-7.21,5.29-7.9278,10.1906
	C169.1066,39.7902,169.0417,40.3824,168.9596,41.0308z M198.8191,49.4346c-0.5148,0.415-0.8817,0.8812-1.3567,1.0614
	c-1.372,0.5205-2.7581,1.0949-4.1913,1.3448c-4.4207,0.7708-8.8753,1.3451-13.2982,2.1044
	c-2.9434,0.5053-5.8211,1.3145-8.4561,2.786c-3.8004,2.1223-5.553,5.8309-4.7511,10.0823c0.8249,4.3736,3.5549,7.2174,7.6462,8.5019
	c5.9718,1.8749,11.6693,0.7827,16.8497-2.6286c4.6596-3.0683,7.2764-7.4679,7.5329-13.1031
	c0.1478-3.2471,0.0772-6.5042,0.1012-9.7569C198.8966,49.7228,198.8563,49.6184,198.8191,49.4346z"/>
<path d="M77.6745,53.8885c0.188,7.5723,2.1738,14.1909,8.2416,18.9779c3.38,2.6665,7.3616,3.5569,11.5694,3.2309
	c2.0466-0.1585,4.1432-0.5146,6.0714-1.1956c4.8502-1.713,7.7171-5.4501,9.5144-10.1177c0.3265-0.848,0.5512-1.7351,0.8683-2.5872
	c0.0787-0.2115,0.3323-0.5065,0.5098-0.5095c2.132-0.0353,4.2647-0.0228,6.4853-0.0228c-1.1159,4.7766-2.7965,9.1854-5.9567,12.8962
	c-3.2178,3.7784-7.3783,5.9138-12.2046,6.8025c-5.3774,0.9901-10.7209,0.9402-15.9053-0.9685
	c-6.5425-2.4087-10.832-7.1542-13.456-13.5068c-2.3945-5.7969-2.8368-11.8898-2.4872-18.0603
	c0.2699-4.7637,1.3189-9.3648,3.5746-13.6132c3.4843-6.5622,8.6317-11.0923,16.0493-12.5384
	c7.0739-1.3791,13.854-0.6455,19.8675,3.7328c3.9835,2.9003,6.6416,6.8314,8.3842,11.4148
	c1.7173,4.5167,2.7222,11.4681,2.2828,16.0651C106.6631,53.8885,92.2326,53.8885,77.6745,53.8885z M77.7112,48.0261
	c12.2437,0,24.3864,0,36.5788,0c-0.0651-0.8704-0.0753-1.6725-0.1957-2.4575c-0.1768-1.152-0.3693-2.3086-0.6651-3.4342
	c-1.6597-6.3164-6.7305-13.5173-15.6167-14.176c-4.9216-0.3648-9.3136,0.8808-12.9405,4.3298
	C80.3951,36.5453,78.5539,42.0303,77.7112,48.0261z"/>
<path d="M152.8911,74.8439c0,1.8945,0.0144,3.6618-0.0216,5.428c-0.0037,0.1823-0.3028,0.509-0.474,0.5152
	c-3.6658,0.1325-7.3437,0.5243-10.9788-0.324c-3.8702-0.9031-5.9753-3.2814-6.5759-7.5386c-0.2145-1.52-0.3401-3.066-0.3433-4.6005
	c-0.0269-12.5368-0.0152-25.0736-0.0152-37.6104c0-0.3391,0-0.6783,0-1.1275c-3.2764,0-6.5036,0-9.7863,0
	c0-1.9811,0-3.8522,0-5.8018c3.2321,0,6.439,0,9.7439,0c0-5.6831,0-11.2897,0-16.9673c2.3282,0,4.5594,0,6.9059,0
	c0,5.6002,0,11.2066,0,16.9094c3.8861,0,7.6597,0,11.4899,0c0,1.9661,0,3.835,0,5.8064c-3.8012,0-7.5746,0-11.4684,0
	c0,0.4054,0,0.7096,0,1.0137c0,12.394-0.0075,24.7881,0.0128,37.1821c0.0019,1.1354,0.1013,2.2846,0.2958,3.4029
	c0.405,2.3285,1.7774,3.6964,4.1284,3.8545c2.0615,0.1386,4.1432-0.0204,6.2158-0.0545
	C152.2711,74.9273,152.5214,74.8823,152.8911,74.8439z"/>
<path id="path3100" d="M87.6045,142.5331c0-19.9934,17.3489-21.4342,21.8966-21.4342c4.5477,0,33.3045,2.4251,33.3045,28.8872
	s-22.282,30.2924-40.7219,30.2924v8.1883c13.8863,0,43.3427,4.5655,43.3427,35.8422s-28.9643,34.6504-50.7601,34.6504v9.8366
	c0,0-7.1744,0,27.7784,0c35.19,0,63.9467-12.5107,63.9467-42.7675c0-30.3636-30.1916-40.9413-51.2523-41.89
	c0,0,44.2854-3.3737,44.2854-31.7688c0-29.5869-36.3818-41.3623-76.3685-41.3623c-38.9017,0-58.563,15.9556-58.563,45.4713
	c0,23.0884,0.1067,145.5151,0.1067,145.5151H1.9924V91.9924h210.0014v210.0014H87.735
	C87.7409,301.9997,87.6045,162.4909,87.6045,142.5331"/>
</svg>
